<mxfile host="app.diagrams.net" modified="2021-05-26T16:51:56.085Z" agent="5.0 (Macintosh; Intel Mac OS X 10_15_7) AppleWebKit/537.36 (KHTML, like Gecko) Chrome/86.0.4240.193 Safari/537.36" etag="8plxTeaFzQw8Kqoygf3X" version="14.7.2" type="github">
  <diagram id="kmDaKt3fo3M-72-NDMOK" name="Page-1">
    <mxGraphModel dx="946" dy="536" grid="1" gridSize="10" guides="1" tooltips="1" connect="1" arrows="1" fold="1" page="1" pageScale="1" pageWidth="827" pageHeight="1169" math="0" shadow="0">
      <root>
        <mxCell id="0" />
        <mxCell id="1" parent="0" />
        <mxCell id="7TFhEfulHUHzjy1_c8ux-4" style="edgeStyle=orthogonalEdgeStyle;rounded=0;orthogonalLoop=1;jettySize=auto;html=1;exitX=0.5;exitY=1;exitDx=0;exitDy=0;entryX=0.5;entryY=0;entryDx=0;entryDy=0;" edge="1" parent="1" source="7TFhEfulHUHzjy1_c8ux-1" target="7TFhEfulHUHzjy1_c8ux-3">
          <mxGeometry relative="1" as="geometry" />
        </mxCell>
        <mxCell id="7TFhEfulHUHzjy1_c8ux-1" value="ConfigurationClassPostProcessor&lt;br&gt;我把@ComponentScan标记的类注入到容器中" style="rounded=1;whiteSpace=wrap;html=1;fillColor=#dae8fc;strokeColor=#6c8ebf;" vertex="1" parent="1">
          <mxGeometry x="260" y="120" width="270" height="60" as="geometry" />
        </mxCell>
        <mxCell id="7TFhEfulHUHzjy1_c8ux-3" value="MyBeanFactoryPostProcessor&lt;br&gt;我把容器中所有的Bean的作用域改为prototype" style="rounded=1;whiteSpace=wrap;html=1;fillColor=#ffe6cc;strokeColor=#d79b00;" vertex="1" parent="1">
          <mxGeometry x="260" y="240" width="270" height="60" as="geometry" />
        </mxCell>
      </root>
    </mxGraphModel>
  </diagram>
</mxfile>
